HIERARCHY
ROOT hip
{
	OFFSET 0.000000 0.000000 0.000000 
	CHANNELS 6 Xposition Yposition Zposition Xrotation Zrotation Yrotation
	JOINT abdomen
	{
		OFFSET 0.000000 3.402643 0.000000 
		CHANNELS 3 Xrotation Zrotation Yrotation
		JOINT chest
		{
			OFFSET 0.000000 8.438565 -0.680529 
			CHANNELS 3 Xrotation Zrotation Yrotation
			JOINT neck
			{
				OFFSET 0.000000 10.207942 -0.272212 
				CHANNELS 3 Xrotation Zrotation Yrotation
				JOINT head
				{
					OFFSET 0.000000 3.130431 0.000000 
					CHANNELS 3 Xrotation Zrotation Yrotation
					End Site
					{
						OFFSET 0.000000 3.130435 0.000000 
					}
				}
			}
			JOINT lCollar
			{
				OFFSET 3.470700 6.669187 -0.816635 
				CHANNELS 3 Yrotation Zrotation Xrotation
				JOINT lShldr
				{
					OFFSET 3.198488 0.000000 0.000000 
					CHANNELS 3 Zrotation Yrotation Xrotation
					JOINT lForeArm
					{
						OFFSET 10.139888 0.000000 0.000000 
						CHANNELS 3 Yrotation Zrotation Xrotation
						JOINT lHand
						{
							OFFSET 8.370511 0.000000 0.000000 
							CHANNELS 3 Zrotation Yrotation Xrotation
							End Site
							{
								OFFSET 4.083176 0.000000 0.000000 
							}
						}
					}
				}
			}
			JOINT rCollar
			{
				OFFSET -3.470700 6.669187 -0.816635 
				CHANNELS 3 Yrotation Zrotation Xrotation
				JOINT rShldr
				{
					OFFSET -3.198488 0.000000 0.000000 
					CHANNELS 3 Zrotation Yrotation Xrotation
					JOINT rForeArm
					{
						OFFSET -10.139888 0.000000 0.000000 
						CHANNELS 3 Yrotation Zrotation Xrotation
						JOINT rHand
						{
							OFFSET -8.370511 0.000000 0.000000 
							CHANNELS 3 Zrotation Yrotation Xrotation
							End Site
							{
								OFFSET -4.083176 0.000000 0.000000 
							}
						}
					}
				}
			}
		}
	}
	JOINT lThigh
	{
		OFFSET 5.308129 -1.633274 1.361059 
		CHANNELS 3 Xrotation Zrotation Yrotation
		JOINT lShin
		{
			OFFSET -2.041588 -20.007561 0.000000 
			CHANNELS 3 Xrotation Zrotation Yrotation
			JOINT lFoot
			{
				OFFSET 0.000000 -19.190928 -1.224953 
				CHANNELS 3 Xrotation Yrotation Zrotation
				End Site
				{
					OFFSET 0.000000 -2.449906 4.627600 
				}
			}
		}
	}
	JOINT rThigh
	{
		OFFSET -5.308129 -1.633274 1.361059 
		CHANNELS 3 Xrotation Zrotation Yrotation
		JOINT rShin
		{
			OFFSET 2.041588 -20.007561 0.000000 
			CHANNELS 3 Xrotation Zrotation Yrotation
			JOINT rFoot
			{
				OFFSET 0.000000 -19.190928 -1.224953 
				CHANNELS 3 Xrotation Yrotation Zrotation
				End Site
				{
					OFFSET 0.000000 -2.449906 4.627600 
				}
			}
		}
	}
}
MOTION
Frames: 6
Frame Time: 0.033333
20.315897 180.818985 -37.581554 -10.123788 20.089085 86.727066 71.556549 -5.059292 7.732635 -20.839844 0.000000 0.000000 -30.849123 -3.638673 -2.839917 8.603516 0.000000 0.000000 -4.754609 -0.109183 -0.002653 3.235273 19.448748 -20.120872 -0.327891 -9.196644 -25.724869 -17.416235 -7.394284 -48.604610 4.754609 0.109183 -0.002672 28.629524 -55.997803 -13.997617 51.114727 11.451587 -18.438801 -14.439846 -35.495228 -36.907890 -44.217140 48.354755 19.990759 126.207664 -10.661102 -23.871017 26.059139 -15.407293 -1.453422 -60.073452 -17.586880 0.922653 41.359726 -0.302680 0.625290 24.082609 -4.799550 5.364733 
20.313410 180.820969 -37.553719 -10.111305 19.896811 86.743103 71.385262 -4.800159 7.620949 -20.839844 0.000000 0.000000 -30.839909 -3.597396 -2.685644 8.603516 0.000000 0.000000 -4.754609 -0.109183 -0.002653 3.227390 19.511839 -19.935495 -0.382428 -9.369347 -25.498432 -17.677401 -7.391462 -48.623775 4.754609 0.109183 -0.002672 28.023174 -56.065559 -13.510431 50.952179 11.762621 -18.266333 -14.013004 -35.432209 -37.242176 -44.529892 48.326130 19.844278 126.206406 -10.661221 -23.908142 26.016977 -15.523492 -1.752770 -60.142487 -17.509069 1.033137 41.287952 -0.263655 0.733394 24.032402 -4.850031 5.171316 
20.294916 180.827972 -37.505550 -10.106353 19.819899 86.690948 71.527756 -4.730135 7.342915 -20.839844 0.000000 0.000000 -31.073399 -3.479924 -2.487827 8.603516 0.000000 0.000000 -4.754609 -0.109183 -0.002653 3.162922 19.562567 -19.997847 -0.394258 -9.361184 -25.607777 -17.670780 -7.320448 -48.613766 4.754609 0.109183 -0.002672 27.655584 -55.762165 -12.990221 50.688160 12.181758 -18.217501 -14.165149 -35.308064 -37.761856 -44.765076 48.328430 19.740316 126.142799 -10.660503 -23.973488 26.026117 -15.667414 -1.838479 -60.131351 -17.508665 1.022646 41.220913 -0.146440 0.752939 24.248241 -4.810834 4.980109 
20.290430 180.818466 -37.454578 -10.134962 19.779675 86.531219 71.815857 -4.921065 7.131231 -20.839844 0.000000 0.000000 -31.433214 -3.345298 -2.313410 8.603516 0.000000 0.000000 -4.754609 -0.109183 -0.002653 3.230909 19.627298 -20.089481 -0.344317 -9.483360 -25.760731 -17.318068 -7.173860 -48.671997 4.754609 0.109183 -0.002672 27.958673 -55.474064 -12.915396 50.739777 12.404164 -18.265869 -14.676068 -35.248104 -37.927353 -44.775307 48.495132 19.785017 126.176994 -10.697137 -24.084610 25.968929 -15.786497 -1.613829 -60.164608 -17.538715 0.896905 41.309681 -0.055258 0.769704 24.357611 -4.631717 4.990398 
20.296412 180.798981 -37.416504 -10.172682 19.719641 86.381256 71.876427 -5.149258 7.151978 -20.839844 0.000000 0.000000 -31.647718 -3.306760 -2.270208 8.603516 0.000000 0.000000 -4.754609 -0.109183 -0.002653 3.524204 19.533413 -19.964279 -0.476177 -9.899987 -25.511778 -16.929813 -6.971808 -48.802689 4.754609 0.109183 -0.002672 28.725037 -55.387341 -13.369118 51.036621 12.219761 -18.384085 -15.120845 -35.387257 -37.594650 -44.655205 48.702976 19.933777 126.257660 -10.719431 -24.244911 25.829460 -15.934678 -1.579196 -60.238163 -17.459557 0.941911 41.453758 -0.097487 0.818944 24.201481 -4.520550 5.380833 
20.289423 180.794479 -37.381325 -10.231087 19.658424 86.234558 71.693649 -5.255836 7.200016 -20.839844 0.000000 0.000000 -31.666960 -3.266658 -2.188077 8.603516 0.000000 0.000000 -4.754609 -0.109183 -0.002653 3.754636 19.078707 -20.265179 -0.241441 -9.818665 -25.658237 -16.598671 -6.983871 -48.715092 4.754609 0.109183 -0.002672 29.210793 -54.991756 -13.910687 51.369068 11.836030 -18.874577 -15.218121 -35.553925 -37.646553 -44.587292 48.870171 20.023497 126.311142 -10.748132 -24.345583 25.677593 -16.035173 -1.670995 -60.178207 -17.234602 1.068665 41.399994 -0.302673 0.850205 24.243507 -4.565001 5.877805 
